<?xml version="1.0" standalone="no"?>
<!DOCTYPE svg PUBLIC "-//W3C//DTD SVG 20010904//EN"
 "http://www.w3.org/TR/2001/REC-SVG-20010904/DTD/svg10.dtd">
<svg version="1.0" xmlns="http://www.w3.org/2000/svg"
 width="735.000000pt" height="235.000000pt" viewBox="0 0 735.000000 235.000000"
 preserveAspectRatio="xMidYMid meet">
<metadata>
Created by potrace 1.16, written by Peter Selinger 2001-2019
</metadata>
<g transform="translate(0.000000,235.000000) scale(0.100000,-0.100000)"
fill="#000000" stroke="none">
<path d="M193 2255 c-80 -39 -115 -75 -150 -153 l-23 -53 0 -875 0 -876 29
-62 c33 -68 91 -120 175 -155 l48 -21 3397 0 c2881 0 3402 2 3427 14 16 8 45
21 64 30 58 27 107 73 134 128 l26 52 0 891 0 891 -26 52 c-33 67 -90 115
-173 147 l-66 25 -3395 0 -3395 0 -72 -35z m3417 -530 l0 -195 -25 0 -25 0 0
195 0 195 25 0 25 0 0 -195z m930 16 c0 -99 3 -186 6 -195 5 -12 0 -16 -20
-16 -16 0 -26 6 -26 15 0 19 -14 19 -29 1 -18 -22 -69 -27 -106 -12 -81 34
-96 175 -25 239 35 31 92 37 128 11 l22 -15 0 69 c0 74 3 82 32 82 17 0 18
-12 18 -179z m1170 104 c0 -41 3 -75 8 -75 4 0 16 7 26 15 30 23 81 18 113 -9
27 -23 28 -28 31 -135 l4 -111 -26 0 -26 0 0 93 c0 107 -13 137 -61 137 -55 0
-69 -28 -69 -135 0 -95 0 -95 -25 -95 l-25 0 0 195 0 195 25 0 c24 0 25 -2 25
-75z m-4332 8 c-6 -75 -31 -126 -93 -188 -48 -49 -102 -75 -154 -75 -53 0 -8
149 66 222 55 53 126 92 177 97 4 1 6 -25 4 -56z m1076 23 c54 -29 76 -75 76
-156 0 -49 -6 -75 -23 -104 -34 -61 -75 -80 -184 -84 l-93 -4 0 185 0 186 43
4 c70 6 140 -4 181 -27z m3088 -43 c2 -23 8 -29 36 -31 23 -2 32 -8 32 -22 0
-14 -9 -20 -32 -22 l-33 -3 -3 -79 c-2 -63 1 -82 14 -97 10 -11 24 -18 33 -17
8 2 17 -5 19 -14 6 -28 -44 -35 -76 -11 -26 19 -27 25 -30 121 -3 95 -4 101
-25 104 -29 4 -29 32 1 36 16 2 22 10 22 27 0 21 10 32 32 34 4 1 8 -11 10
-26z m-2774 -47 c60 -33 82 -137 43 -202 -27 -45 -96 -70 -145 -54 -143 47
-110 271 39 270 22 -1 50 -6 63 -14z m140 -3 c6 -10 19 -56 31 -102 11 -46 22
-86 24 -87 2 -2 16 38 32 89 16 50 33 98 39 105 22 31 41 6 72 -98 18 -58 34
-98 37 -90 3 8 16 56 29 105 21 75 28 91 46 93 29 4 28 -2 -17 -143 -35 -108
-41 -120 -63 -123 -24 -3 -27 2 -54 97 -16 55 -31 97 -34 95 -3 -3 -18 -47
-35 -97 -27 -83 -32 -92 -55 -92 -23 0 -27 9 -62 125 -21 69 -38 128 -38 133
0 15 40 6 48 -10z m410 1 c9 -16 11 -16 33 0 37 26 86 21 120 -13 28 -29 29
-32 29 -135 l0 -106 -25 0 c-25 0 -25 0 -25 99 0 111 -9 131 -60 131 -51 0
-70 -38 -70 -142 0 -87 -1 -89 -22 -86 -22 3 -23 7 -26 122 -1 66 0 126 2 133
7 18 33 16 44 -3z m577 -14 c31 -29 48 -89 39 -136 -21 -114 -168 -148 -232
-54 -20 29 -23 44 -20 92 4 60 29 99 73 119 36 16 113 4 140 -21z m274 13 c28
-23 41 -79 40 -175 -1 -70 -3 -78 -21 -78 -10 0 -21 7 -25 15 -5 14 -8 14 -25
-2 -43 -38 -132 -13 -140 41 -10 59 31 99 115 111 43 7 47 10 41 29 -13 44
-55 55 -116 31 -14 -5 -18 -2 -18 13 0 23 16 29 81 31 31 1 54 -5 68 -16z
m782 -22 c89 -107 -1 -266 -131 -231 -56 15 -83 50 -88 117 -9 102 45 158 143
150 41 -4 54 -10 76 -36z m129 24 c0 -18 8 -18 40 0 42 24 88 19 121 -14 28
-29 29 -32 29 -135 l0 -106 -25 0 c-25 0 -25 0 -25 93 0 107 -13 137 -60 137
-54 0 -70 -31 -70 -137 0 -93 0 -93 -25 -93 l-25 0 0 135 c0 128 1 135 20 135
11 0 20 -7 20 -15z m1101 -13 c26 -24 32 -36 33 -73 l1 -44 -92 -3 c-106 -3
-115 -12 -62 -64 28 -29 34 -30 85 -25 48 5 55 3 52 -11 -2 -10 -19 -19 -47
-25 -112 -22 -189 64 -160 178 23 93 122 127 190 67z m-5151 -202 c43 -18 91
-30 116 -30 25 0 76 13 119 30 140 56 252 36 353 -63 23 -23 42 -45 42 -49 0
-4 -21 -27 -46 -50 -70 -65 -98 -127 -98 -218 0 -47 6 -89 17 -112 20 -48 99
-132 137 -148 17 -7 30 -17 30 -22 0 -16 -51 -111 -97 -180 -54 -82 -132 -154
-181 -167 -40 -11 -71 -6 -169 28 -74 25 -111 26 -181 6 -29 -8 -75 -22 -104
-30 -39 -11 -61 -12 -89 -5 -85 23 -209 176 -269 331 -49 128 -62 200 -58 319
6 133 30 198 101 277 105 115 232 143 377 83z m3534 -316 c51 -18 52 -21 27
-88 -9 -23 -11 -24 -48 -10 -21 7 -61 13 -90 14 -92 0 -145 -72 -92 -129 11
-12 60 -40 107 -62 48 -22 97 -50 111 -62 32 -30 61 -94 61 -137 0 -79 -68
-164 -149 -189 -77 -23 -220 -11 -266 23 -17 12 -17 17 -5 60 7 27 18 45 24
42 146 -63 266 -37 266 56 0 50 -31 80 -112 110 -122 44 -178 106 -178 196 0
83 34 132 120 171 56 26 157 28 224 5z m-1911 -323 c59 -181 107 -332 107
-335 0 -3 -29 -6 -65 -6 l-64 0 -30 93 -29 92 -107 0 -108 0 -26 -90 -26 -90
-63 -3 c-34 -2 -62 1 -62 5 0 6 177 568 205 651 3 8 29 12 83 12 l78 0 107
-329z m2239 202 l3 -58 58 -3 58 -3 -3 -42 -3 -42 -57 -3 -58 -3 0 -127 c0
-152 8 -172 71 -172 l39 0 0 -44 c0 -51 -8 -56 -83 -56 -65 0 -113 27 -133 75
-10 25 -14 76 -14 180 l0 145 -35 0 c-35 0 -35 0 -35 44 0 43 1 45 33 48 30 3
32 6 37 48 5 42 7 45 45 56 71 22 74 21 77 -43z m-1665 -89 c60 -49 87 -113
88 -203 0 -90 -16 -140 -58 -188 -65 -74 -180 -96 -251 -48 -20 14 -39 25 -41
25 -3 0 -5 -54 -5 -120 l0 -120 -60 0 -60 0 -1 315 c-1 173 -2 325 -2 338 -1
20 4 22 51 25 50 3 52 2 52 -22 0 -31 14 -40 31 -20 30 37 82 54 151 51 57 -2
72 -7 105 -33z m581 17 c48 -24 66 -45 93 -105 25 -58 30 -149 10 -217 -37
-132 -186 -199 -298 -135 l-42 24 -3 -116 -3 -117 -57 -3 -58 -3 0 288 c0 158
-3 312 -6 341 l-7 52 57 0 c56 0 56 0 56 -30 0 -35 10 -38 36 -9 45 50 153 65
222 30z m1600 4 c55 -24 109 -81 128 -138 32 -95 5 -225 -58 -284 -59 -56
-170 -78 -262 -52 -61 17 -123 81 -142 147 -30 101 -5 221 58 279 63 59 194
81 276 48z m502 -40 l0 -55 -34 0 c-46 0 -93 -40 -106 -91 -6 -22 -10 -95 -9
-162 l1 -122 -61 -3 -61 -3 0 241 0 241 53 -3 52 -3 5 -40 5 -39 12 27 c16 35
69 67 111 67 l32 0 0 -55z m398 36 c20 -10 45 -27 54 -38 33 -36 58 -107 58
-165 l0 -58 -159 0 c-92 0 -162 -4 -166 -10 -10 -16 32 -85 60 -98 44 -20 108
-25 165 -13 29 6 55 10 57 8 2 -2 4 -21 6 -43 2 -38 2 -39 -48 -52 -29 -7 -81
-11 -122 -9 -144 8 -221 80 -231 215 -8 121 43 222 133 263 54 25 145 25 193
0z"/>
<path d="M4392 1760 c-31 -13 -56 -74 -48 -120 6 -38 45 -80 75 -80 10 0 30 9
45 21 23 18 26 27 26 84 0 57 -3 66 -26 84 -29 23 -38 24 -72 11z"/>
<path d="M2288 1864 c-5 -4 -8 -74 -8 -156 l0 -148 33 0 c54 0 102 18 132 50
26 27 30 40 33 98 3 74 -8 104 -49 134 -26 20 -128 36 -141 22z"/>
<path d="M2672 1760 c-24 -10 -52 -64 -52 -102 0 -32 34 -85 60 -93 57 -18
100 28 100 105 0 33 -6 48 -29 71 -31 31 -42 33 -79 19z"/>
<path d="M3760 1742 c-24 -24 -30 -39 -30 -72 0 -113 105 -152 146 -53 27 64
-1 135 -58 149 -22 5 -33 0 -58 -24z"/>
<path d="M4810 1742 c-26 -26 -30 -38 -30 -82 0 -41 5 -56 25 -75 65 -66 152
13 125 113 -12 45 -23 57 -62 67 -22 6 -33 1 -58 -23z"/>
<path d="M2457 1139 c-41 -147 -68 -240 -73 -253 -5 -14 5 -16 81 -16 66 0 86
3 82 13 -2 6 -21 68 -42 137 -41 136 -43 140 -48 119z"/>
<path d="M3035 980 c-11 -4 -31 -20 -45 -35 -22 -23 -25 -37 -28 -108 -4 -102
15 -139 78 -158 35 -11 46 -10 75 4 52 25 75 69 75 147 0 75 -21 120 -69 145
-33 17 -56 18 -86 5z"/>
<path d="M3644 981 c-11 -5 -33 -23 -47 -41 -24 -29 -27 -39 -27 -114 0 -90
11 -116 60 -141 16 -8 39 -15 52 -15 36 0 83 34 101 73 34 71 14 189 -38 223
-28 19 -75 25 -101 15z"/>
<path d="M5273 989 c-106 -30 -119 -261 -17 -307 31 -15 79 -15 105 -2 52 28
77 166 45 245 -23 54 -77 80 -133 64z"/>
<path d="M6134 966 c-21 -21 -34 -44 -34 -60 l0 -26 99 0 c55 0 102 4 106 10
9 15 -21 76 -46 94 -40 27 -86 21 -125 -18z"/>
</g>
</svg>
