<?xml version="1.0" standalone="no"?>
<!DOCTYPE svg PUBLIC "-//W3C//DTD SVG 20010904//EN"
 "http://www.w3.org/TR/2001/REC-SVG-20010904/DTD/svg10.dtd">
<svg version="1.0" xmlns="http://www.w3.org/2000/svg"
 width="735.000000pt" height="235.000000pt" viewBox="0 0 735.000000 235.000000"
 preserveAspectRatio="xMidYMid meet">
<metadata>
Created by potrace 1.16, written by Peter Selinger 2001-2019
</metadata>
<g transform="translate(0.000000,235.000000) scale(0.100000,-0.100000)"
fill="#000000" stroke="none">
<path d="M235 2277 c-64 -22 -117 -54 -154 -92 -75 -79 -71 -22 -71 -1003 0
-810 1 -881 17 -926 25 -67 81 -122 168 -162 l74 -34 3399 0 c2996 0 3403 2
3428 15 16 8 36 15 45 15 55 0 149 64 184 125 l25 42 0 922 c0 1019 5 945 -67
1012 -49 46 -106 76 -163 85 -76 12 -6851 13 -6885 1z m483 -368 c31 -18 75
-42 97 -54 22 -12 74 -40 115 -62 119 -64 664 -364 675 -373 6 -4 35 -21 65
-37 227 -123 237 -131 209 -158 -8 -7 -81 -50 -162 -95 l-149 -82 -41 38 c-23
21 -69 65 -103 97 l-60 58 -145 -138 c-79 -76 -242 -232 -361 -347 -160 -153
-222 -206 -235 -202 -15 6 -16 27 -10 218 4 116 7 380 8 587 1 207 5 365 9
351 4 -14 8 -42 9 -62 l1 -38 140 0 c99 0 140 3 140 12 0 6 9 3 20 -7 11 -10
22 -16 25 -14 2 3 -71 80 -163 172 -92 92 -161 167 -154 167 7 0 39 -14 70
-31z m1921 -30 l34 -20 -21 -21 c-17 -18 -24 -19 -36 -9 -21 18 -82 16 -110
-3 -55 -35 -60 -155 -10 -207 21 -22 37 -29 65 -29 43 0 62 18 57 57 -2 24 -8
28 -36 31 -29 3 -33 6 -30 30 3 25 6 27 61 30 l57 3 0 -89 0 -90 -40 -16 c-54
-21 -95 -20 -146 4 -49 24 -69 51 -86 114 -14 53 0 131 32 176 42 59 144 79
209 39z m449 -36 c3 -28 7 -32 35 -35 27 -2 32 -7 32 -28 0 -21 -5 -26 -32
-28 l-33 -3 0 -74 c0 -64 3 -76 20 -85 10 -6 25 -9 32 -8 8 2 13 -7 13 -22 0
-21 -5 -26 -34 -28 -73 -7 -105 43 -100 155 2 43 -1 57 -14 65 -23 12 -21 40
3 56 11 7 20 23 20 35 0 30 9 39 35 35 14 -2 21 -12 23 -35z m452 3 c0 -32 3
-35 33 -38 27 -2 32 -7 32 -28 0 -21 -5 -26 -32 -28 l-33 -3 0 -74 c0 -77 7
-90 45 -90 15 0 20 -7 20 -25 0 -21 -5 -25 -36 -28 -24 -2 -43 4 -62 18 -26
20 -27 26 -27 111 0 82 -1 89 -20 89 -15 0 -20 7 -20 26 0 17 6 28 20 31 14 4
20 14 20 32 0 34 7 41 37 41 20 0 23 -5 23 -34z m-614 -60 c24 -20 28 -31 29
-77 l0 -54 -82 -3 c-46 -2 -83 -6 -83 -11 0 -15 41 -51 66 -57 14 -4 37 -1 51
5 27 12 42 3 43 -24 0 -14 -58 -35 -94 -35 -96 0 -156 116 -110 213 32 68 126
90 180 43z m459 2 c3 -13 5 -72 3 -133 l-3 -110 -32 -3 -33 -3 0 135 0 136 30
0 c22 0 31 -5 35 -22z m566 5 c83 -49 77 -203 -10 -248 -56 -28 -118 -12 -160
41 -44 56 -18 190 42 214 36 14 97 11 128 -7z m179 2 c0 -19 9 -19 34 0 33 25
91 19 115 -11 18 -23 21 -41 21 -135 l0 -109 -30 0 -30 0 0 83 c0 45 -3 92 -6
104 -9 32 -41 39 -73 15 -25 -18 -26 -24 -27 -108 l-1 -89 -31 -3 -32 -3 0
135 0 136 30 0 c20 0 30 -5 30 -15z m446 -540 c-14 -21 -16 -63 -16 -303 0
-297 1 -302 50 -302 24 -1 24 -1 6 -15 -26 -20 -166 -21 -166 -2 0 7 5 18 10
23 7 7 9 112 8 295 l-3 284 -30 6 -30 6 35 16 c19 9 61 16 94 17 l58 0 -16
-25z m-1792 -10 c59 -8 156 -49 156 -67 0 -14 -70 -78 -86 -78 -6 0 -9 10 -7
23 4 18 -4 29 -35 50 -105 69 -244 56 -323 -30 -51 -54 -69 -105 -69 -194 0
-70 4 -90 30 -144 34 -71 91 -128 158 -157 57 -26 157 -34 206 -18 l36 12 0
69 0 69 -60 0 c-66 0 -78 13 -27 29 25 8 160 16 211 12 5 -1 2 -9 -7 -19 -11
-12 -17 -41 -19 -97 l-3 -79 -70 -19 c-50 -14 -106 -20 -195 -21 -118 -1 -128
1 -182 27 -66 33 -121 89 -154 161 -19 41 -24 67 -24 136 0 73 4 94 28 145 51
107 147 176 267 194 59 8 72 8 169 -4z m3074 -327 l2 -308 -35 0 -35 0 0 303
c0 167 3 307 7 311 4 4 19 6 33 4 l25 -3 3 -307z m-2522 116 c118 -48 167
-184 109 -301 -69 -138 -255 -166 -366 -54 -81 80 -88 184 -20 278 58 79 185
115 277 77z m499 -3 c49 -22 99 -77 115 -126 20 -61 9 -148 -26 -198 -75 -106
-244 -129 -340 -45 -57 50 -77 99 -72 179 3 56 9 75 35 111 62 87 193 123 288
79z m1086 -1 c33 -18 79 -70 79 -91 0 -14 -215 -99 -252 -99 -28 0 -30 -2 -23
-27 11 -45 58 -106 100 -130 44 -25 86 -29 134 -12 45 16 48 5 7 -26 -50 -38
-144 -46 -208 -17 -71 31 -127 119 -128 202 -1 157 158 267 291 200z m457 -7
c4 -29 5 -28 50 2 43 30 134 35 182 10 123 -63 133 -323 17 -409 -42 -31 -163
-30 -206 2 l-31 23 0 -121 0 -120 -35 0 -35 0 0 313 c0 173 2 316 5 319 3 3
16 5 28 4 15 -1 23 -8 25 -23z m845 11 c58 -28 67 -61 67 -254 l0 -170 -29 0
c-24 0 -30 5 -33 25 l-3 24 -44 -29 c-35 -24 -55 -30 -98 -30 -97 0 -143 40
-143 126 0 91 56 130 201 141 l79 6 0 32 c0 18 -9 44 -21 59 -17 22 -28 26
-70 26 -27 0 -65 -7 -84 -14 -32 -14 -36 -13 -45 4 -16 30 -12 36 28 53 51 21
153 21 195 1z m175 2 c11 -14 92 -225 129 -336 2 -8 31 58 63 146 32 89 63
171 69 183 14 25 71 30 71 7 0 -13 -21 -72 -100 -276 -16 -41 -45 -118 -65
-170 -20 -52 -48 -109 -61 -127 -27 -36 -80 -56 -134 -51 -30 3 -35 7 -38 31
-3 26 -1 27 40 27 53 0 81 23 109 88 l20 45 -87 213 c-47 117 -83 217 -80 222
8 13 54 12 64 -2z m-1994 -5 c7 -10 -37 -31 -65 -31 -20 0 -20 -1 3 -32 18
-25 23 -46 23 -90 0 -55 -2 -59 -47 -105 -27 -27 -48 -56 -48 -65 0 -9 21 -35
47 -58 64 -56 83 -87 83 -136 0 -136 -204 -221 -358 -149 -151 70 -72 241 118
257 25 2 34 7 31 18 -2 8 -6 30 -9 48 -4 28 -8 32 -34 32 -71 0 -138 66 -138
136 0 87 55 151 146 173 50 12 241 14 248 2z"/>
<path d="M3841 1734 c-25 -31 -27 -74 -6 -113 26 -52 74 -50 100 5 41 88 -39
178 -94 108z"/>
<path d="M3174 1001 c-50 -31 -64 -58 -64 -127 0 -70 19 -133 55 -179 70 -93
189 -57 211 64 14 73 -36 207 -90 241 -41 25 -72 25 -112 1z"/>
<path d="M3663 1000 c-50 -30 -66 -72 -61 -151 7 -88 48 -166 103 -193 35 -17
42 -18 78 -5 62 22 82 57 82 142 0 57 -6 84 -27 129 -42 90 -108 120 -175 78z"/>
<path d="M4773 1001 c-17 -11 -36 -29 -42 -39 -15 -28 -25 -99 -14 -105 10 -7
162 58 181 77 12 11 9 19 -15 44 -37 41 -70 48 -110 23z"/>
<path d="M5438 967 c-35 -30 -52 -87 -45 -161 8 -106 43 -146 124 -146 77 0
116 55 117 165 0 112 -39 165 -124 165 -32 0 -53 -7 -72 -23z"/>
<path d="M6120 812 c-51 -5 -70 -13 -90 -34 -36 -39 -22 -98 28 -116 80 -28
162 34 162 123 0 38 0 38 -100 27z"/>
<path d="M4128 990 c-50 -30 -42 -154 14 -210 68 -68 159 -15 143 83 -9 51
-20 74 -53 110 -27 28 -71 36 -104 17z"/>
<path d="M4115 578 c-76 -42 -88 -105 -31 -156 87 -76 250 -41 250 53 0 31 -7
44 -42 76 -38 36 -46 39 -99 39 -32 0 -67 -6 -78 -12z"/>
</g>
</svg>
