<?xml version="1.0" standalone="no"?>
<!DOCTYPE svg PUBLIC "-//W3C//DTD SVG 20010904//EN"
 "http://www.w3.org/TR/2001/REC-SVG-20010904/DTD/svg10.dtd">
<svg version="1.0" xmlns="http://www.w3.org/2000/svg"
 width="735.000000pt" height="235.000000pt" viewBox="0 0 735.000000 235.000000"
 preserveAspectRatio="xMidYMid meet">
<metadata>
Created by potrace 1.16, written by Peter Selinger 2001-2019
</metadata>
<g transform="translate(0.000000,235.000000) scale(0.100000,-0.100000)"
fill="#000000" stroke="none">
<path d="M200 2255 c-66 -21 -115 -67 -150 -139 l-30 -64 0 -877 0 -877 29
-62 c32 -67 90 -119 158 -143 55 -18 6863 -19 6924 0 63 19 129 75 161 136
l28 53 0 892 0 892 -26 52 c-31 62 -90 115 -152 136 -41 14 -398 16 -3471 15
-2904 0 -3433 -3 -3471 -14z m793 -376 c37 -28 49 -79 45 -189 -2 -76 -6 -95
-18 -95 -12 0 -16 15 -18 68 -2 37 -7 67 -13 67 -5 0 -21 -11 -34 -25 -21 -20
-25 -34 -25 -85 0 -53 -2 -60 -20 -60 -18 0 -20 7 -20 65 0 38 6 78 14 94 14
27 53 51 82 51 13 0 13 4 -1 30 -25 48 -72 64 -135 48 -55 -15 -89 -31 -97
-48 -4 -8 -10 -73 -13 -145 -4 -113 -7 -130 -22 -133 -16 -3 -18 8 -18 123 0
144 10 179 63 210 75 46 188 58 230 24z m1408 -33 c67 -28 99 -85 99 -177 0
-79 -28 -139 -79 -167 -33 -19 -55 -22 -140 -22 l-101 0 0 190 0 190 94 0 c58
0 106 -5 127 -14z m1204 -176 l0 -185 -30 0 -30 0 -3 175 c-1 96 0 180 3 188
3 8 16 12 32 10 l28 -3 0 -185z m900 0 l0 -185 -24 -3 c-13 -2 -27 1 -31 7 -4
8 -16 6 -39 -5 -48 -24 -99 -13 -138 31 -30 31 -33 41 -33 95 0 35 7 74 15 90
28 54 102 75 155 45 14 -8 28 -14 33 -15 4 0 7 30 7 66 l0 65 28 -3 27 -3 0
-185z m1155 125 c0 -69 3 -73 34 -50 40 30 115 12 135 -32 6 -13 11 -71 11
-128 l0 -105 -30 0 -30 0 0 96 c0 111 -9 134 -50 134 -54 0 -70 -31 -70 -137
l0 -93 -30 0 -30 0 0 183 c0 101 3 187 7 190 3 4 17 7 30 7 22 0 23 -4 23 -65z
m-150 0 c4 -32 9 -40 25 -38 11 1 23 -4 27 -10 15 -24 8 -37 -22 -37 l-30 0 0
-89 0 -89 31 -11 c17 -6 29 -16 27 -23 -6 -18 -92 -23 -106 -5 -6 7 -13 58
-14 113 -3 94 -4 99 -25 102 -32 5 -30 38 2 46 20 5 25 13 25 40 0 39 7 48 35
44 15 -2 21 -12 25 -43z m-2743 -80 c30 -35 33 -44 33 -102 0 -58 -3 -66 -32
-98 -65 -70 -181 -54 -219 29 -30 66 -22 125 24 175 31 33 55 41 112 37 43 -3
54 -9 82 -41z m106 39 c9 -3 24 -42 38 -95 12 -49 26 -89 30 -89 4 0 14 31 23
69 23 99 33 121 55 121 28 0 38 -18 58 -100 10 -40 23 -75 28 -77 6 -2 16 23
24 54 20 88 37 123 60 123 11 0 22 -4 26 -9 3 -6 -14 -69 -37 -140 l-43 -131
-32 0 c-29 0 -32 3 -43 53 -19 85 -33 127 -40 127 -4 0 -12 -26 -19 -57 -25
-116 -29 -124 -64 -121 -35 3 -32 -2 -85 168 -17 52 -28 98 -26 102 6 9 26 10
47 2z m438 -17 c4 -6 16 -3 30 7 42 29 127 11 143 -29 3 -9 6 -66 6 -126 l0
-109 -30 0 -30 0 0 96 c0 52 -5 104 -10 115 -14 26 -58 25 -87 -3 -21 -19 -23
-30 -23 -115 l0 -93 -30 0 -30 0 0 128 c0 81 4 132 11 139 12 12 39 6 50 -10z
m533 8 c40 -19 76 -80 76 -128 0 -97 -79 -161 -173 -142 -97 21 -137 156 -69
237 42 49 105 62 166 33z m295 4 c43 -15 51 -35 51 -133 0 -68 3 -87 16 -94
23 -13 13 -46 -14 -50 -13 -2 -32 4 -41 12 -16 15 -21 15 -50 0 -43 -21 -109
-13 -133 16 -25 30 -23 86 2 108 11 9 50 22 87 29 71 13 87 26 72 55 -14 26
-85 25 -99 -2 -7 -13 -21 -20 -40 -20 -34 0 -34 0 -18 36 22 47 99 67 167 43z
m751 -7 c92 -49 92 -204 0 -254 -26 -15 -47 -18 -84 -14 -76 8 -116 57 -116
141 0 114 101 179 200 127z m206 3 c50 26 113 14 134 -25 6 -11 11 -69 12
-128 l1 -107 -29 0 -29 0 -3 99 c-1 55 -8 106 -14 113 -16 20 -63 15 -84 -8
-16 -17 -19 -38 -20 -113 l-1 -91 -32 -3 -31 -3 0 135 c0 120 2 135 18 139 9
2 24 -3 33 -10 13 -11 21 -11 45 2z m985 -8 c21 -14 39 -38 48 -63 23 -67 15
-74 -88 -74 -55 0 -92 -4 -97 -11 -3 -6 2 -23 13 -37 28 -38 81 -42 113 -7 26
28 60 34 60 10 0 -8 -13 -29 -28 -46 -55 -61 -166 -44 -205 31 -22 42 -18 124
8 163 36 56 120 72 176 34z m-4604 -143 l93 -36 0 -482 0 -481 -86 -34 c-101
-39 -76 -41 -414 29 -135 27 -326 66 -425 86 -99 20 -187 40 -197 45 -17 9
-18 32 -16 362 l3 352 40 7 c197 38 890 180 894 184 7 7 12 5 108 -32z m2308
-710 l0 -259 -27 -3 c-24 -3 -28 0 -28 22 0 14 -4 26 -10 26 -5 0 -10 -5 -10
-10 0 -19 -65 -50 -106 -50 -88 0 -147 71 -147 178 0 110 50 181 140 198 38 7
99 -11 107 -31 3 -8 10 -15 16 -15 6 0 10 39 10 103 0 57 3 106 6 110 3 3 16
2 27 -2 22 -8 22 -11 22 -267z m1785 237 c19 -5 26 -15 28 -38 l3 -31 -47 14
c-66 20 -96 18 -135 -9 -37 -24 -48 -61 -30 -96 6 -11 47 -39 91 -62 100 -53
130 -84 137 -139 15 -112 -115 -181 -258 -138 -35 10 -39 14 -39 45 0 18 2 33
3 33 2 0 19 -7 37 -17 39 -19 135 -22 167 -5 12 7 24 26 28 43 10 44 -16 75
-106 126 -100 56 -129 90 -129 151 0 50 16 76 61 104 40 25 133 35 189 19z
m-3301 -68 c11 -38 34 -122 52 -188 37 -138 49 -162 61 -119 5 16 17 61 28 99
73 267 74 270 108 273 18 2 32 1 32 -3 0 -11 81 -310 91 -333 5 -13 9 -32 9
-42 0 -11 4 -20 8 -20 9 0 30 67 77 250 37 146 39 150 75 150 16 0 30 -2 30
-3 0 -2 -9 -33 -20 -68 -29 -94 -34 -111 -76 -264 -21 -77 -42 -146 -48 -153
-5 -7 -23 -12 -40 -10 l-31 3 -50 179 c-28 99 -55 181 -61 183 -5 2 -16 -20
-23 -49 -13 -51 -24 -90 -71 -245 -21 -72 -22 -73 -55 -73 -33 0 -35 1 -54 68
-65 224 -121 419 -121 425 0 4 13 7 30 7 27 0 30 -4 49 -67z m3499 -25 l3 -47
42 -3 c34 -2 43 -7 45 -25 3 -19 -2 -22 -44 -25 l-47 -3 2 -120 c1 -67 7 -125
13 -132 6 -7 26 -13 44 -13 34 0 39 -6 28 -34 -11 -28 -86 -21 -115 10 -23 24
-24 34 -27 160 l-4 134 -27 0 c-34 0 -40 6 -34 30 3 11 16 20 32 22 22 3 27 9
29 38 8 76 55 82 60 8z m-2467 -53 c58 -31 69 -64 69 -218 l0 -138 -27 3 -28
3 -5 130 c-3 74 -10 139 -17 151 -24 42 -98 39 -138 -6 -17 -19 -20 -39 -23
-151 l-4 -129 -29 0 -29 0 2 178 c3 177 3 177 26 180 17 3 25 -2 29 -17 6 -23
18 -27 28 -11 9 15 65 38 93 39 13 1 36 -6 53 -14z m810 4 c76 -26 113 -85
112 -179 0 -122 -66 -190 -182 -190 -55 0 -97 23 -137 75 -24 32 -28 46 -28
104 -1 102 34 159 119 189 40 14 75 14 116 1z m888 0 c23 -8 31 -17 31 -35 0
-21 -3 -24 -26 -18 -45 12 -101 9 -118 -5 -10 -8 -16 -25 -14 -40 2 -21 15
-32 65 -56 34 -16 70 -38 81 -48 68 -63 0 -167 -109 -167 -69 0 -99 14 -99 46
0 23 3 25 23 20 80 -24 130 -19 147 15 16 29 -8 62 -58 78 -23 8 -57 27 -76
43 -30 24 -36 36 -36 67 0 78 100 131 189 100z m1171 -13 c94 -45 118 -207 44
-296 -62 -73 -184 -81 -252 -17 -40 37 -55 78 -55 144 1 98 37 148 133 187 24
9 93 0 130 -18z m646 -1 c43 -28 65 -74 62 -130 l-3 -50 -122 -3 c-74 -1 -123
-7 -123 -13 0 -5 6 -25 14 -44 25 -59 111 -84 176 -50 31 16 45 7 36 -23 -14
-44 -150 -57 -206 -19 -116 77 -101 280 24 338 47 22 103 20 142 -6z m-3851
-165 l0 -175 -24 -3 c-13 -2 -28 2 -32 10 -13 19 -10 320 4 336 5 7 20 12 31
10 20 -3 21 -8 21 -178z m1352 168 c5 -7 25 -70 44 -140 18 -71 36 -128 39
-128 3 0 10 17 17 38 77 249 74 242 98 242 26 0 35 -17 65 -135 28 -108 40
-145 48 -145 4 0 20 53 36 118 36 150 41 162 66 162 14 0 20 -7 20 -22 0 -23
-83 -309 -95 -328 -9 -14 -51 -12 -62 3 -6 6 -13 23 -16 37 -19 86 -54 196
-62 199 -5 1 -18 -23 -28 -56 -60 -188 -60 -188 -91 -188 -29 0 -30 3 -63 110
-18 61 -42 137 -52 169 -11 33 -18 63 -15 68 8 12 40 10 51 -4z m2083 -13 c0
-14 2 -25 5 -25 2 0 15 11 29 25 17 17 36 25 61 25 31 0 35 -3 35 -25 0 -22
-4 -25 -33 -25 -34 0 -63 -22 -86 -67 -6 -12 -11 -70 -11 -133 l0 -111 -27 3
-28 3 -3 165 c-1 90 0 170 2 177 3 7 17 13 31 13 20 0 25 -5 25 -25z"/>
<path d="M2255 1798 c-3 -8 -4 -70 -3 -139 l3 -124 59 0 c53 1 61 4 87 32 50
57 51 148 1 204 -22 25 -37 31 -84 36 -45 4 -59 3 -63 -9z"/>
<path d="M4321 1684 c-14 -18 -21 -41 -21 -69 0 -74 53 -115 109 -85 43 23 52
120 15 161 -26 29 -78 25 -103 -7z"/>
<path d="M2632 1703 c-18 -7 -42 -57 -42 -88 0 -33 24 -81 45 -89 58 -22 105
18 105 89 0 71 -49 112 -108 88z"/>
<path d="M3732 1687 c-32 -34 -31 -115 1 -145 65 -61 146 14 118 109 -18 61
-78 79 -119 36z"/>
<path d="M4771 1684 c-48 -61 -14 -164 55 -164 64 0 95 90 54 158 -26 43 -78
46 -109 6z"/>
<path d="M983 1333 l-93 -4 0 -114 0 -115 130 0 130 0 0 120 0 120 -37 -2
c-21 -1 -80 -4 -130 -5z"/>
<path d="M775 1289 c-33 -5 -80 -12 -105 -16 l-45 -9 0 -79 0 -80 113 -3 112
-3 0 95 c0 52 -3 96 -7 99 -5 2 -35 0 -68 -4z"/>
<path d="M620 985 c0 -52 4 -77 13 -80 23 -10 201 -34 209 -29 4 3 8 45 8 95
l0 89 -115 0 -115 0 0 -75z"/>
<path d="M890 967 l0 -94 113 -17 c61 -10 120 -20 130 -22 15 -5 17 5 17 110
l0 116 -130 0 -130 0 0 -93z"/>
<path d="M3592 933 c-12 -2 -33 -19 -47 -37 -21 -28 -25 -44 -25 -103 0 -64 3
-74 29 -102 23 -24 37 -31 68 -31 73 0 113 52 113 147 0 50 -4 64 -27 90 -28
32 -67 45 -111 36z"/>
<path d="M4015 933 c-55 -13 -92 -91 -79 -166 12 -72 49 -107 114 -107 78 0
110 42 110 144 0 58 -3 69 -27 95 -28 29 -77 44 -118 34z"/>
<path d="M6048 933 c-91 -14 -115 -182 -36 -248 28 -24 39 -27 82 -22 39 3 55
10 72 32 43 54 41 165 -4 210 -13 14 -30 25 -36 25 -6 0 -20 2 -31 4 -11 2
-32 1 -47 -1z"/>
<path d="M6695 925 c-31 -16 -69 -70 -59 -86 7 -12 181 -12 188 0 7 11 -7 48
-26 72 -20 25 -68 31 -103 14z"/>
</g>
</svg>
